# File created by Blade
# Date/Time:  Wed Jan 21 16:20:01 2015
# Frame Rate: 120.000 fps
#------------------------------------------------------
:FULLY-SPECIFIED
:DEGREES
489
root 18.563635 36.018633 -20.572172 -179.520506 -4.101834 -182.822776
Spine -1.314956 8.268787 -8.425486
Head 24.571316 -5.485299 3.674514
LeftShoulder -12.349068 -24.817295 3.108465
LeftArm -15.622278 -5.752897 -47.299049
LeftForeArm -9.834337 0.000000 2.689217
LeftHand -1.705382 -0.000000 9.135779
LeftHandThumb1 -26.253704 0.000000 33.147579
RightShoulder -12.134045 -16.528020 14.409678
RightArm 6.898659 6.026103 70.002522
RightForeArm -24.206781 0.000000 16.208885
RightHand -0.026241 -0.000000 7.239536
RightHandThumb1 -24.326973 -0.000000 -32.862282
LeftUpLeg -6.713669 1.619984 -3.210958
LeftLeg 16.028602 -0.000000 -0.000000
LeftFoot -6.563169 25.668064 10.638215
LeftToeBase -144.735000 -0.000000 0.000000
RightUpLeg 3.216851 -10.274197 5.455229
RightLeg 0.581704 -0.000000 -0.000000
RightFoot -21.887405 -21.595349 17.577694
RightToeBase 20.803938 -0.000000 -0.000000
490
root 18.503406 36.029924 -20.561420 -179.401151 -4.475613 -182.864781
Spine -1.356920 7.856508 -8.412986
Head 24.526517 -5.664749 3.705697
LeftShoulder -12.270600 -24.747361 2.972752
LeftArm -15.372406 -5.451379 -47.815373
LeftForeArm -9.614439 -0.000000 2.722411
LeftHand -1.654933 -0.000000 9.254858
LeftHandThumb1 -26.253704 0.000000 33.147579
RightShoulder -12.048090 -16.509162 14.318389
RightArm 6.894594 5.893800 70.114871
RightForeArm -24.021346 -0.000000 16.001188
RightHand 0.055738 -0.000000 7.301910
RightHandThumb1 -24.326973 -0.000000 -32.862282
LeftUpLeg -5.940554 1.679701 -3.355698
LeftLeg 14.292128 -0.000000 -0.000000
LeftFoot -6.197836 25.863938 10.042381
LeftToeBase -144.694830 -0.000000 0.000000
RightUpLeg 3.049782 -10.571887 5.344324
RightLeg 0.676044 -0.000000 -0.000000
RightFoot -22.005616 -21.614392 17.738118
RightToeBase 21.005195 -0.000000 -0.000000
491
root 18.443527 36.040978 -20.549981 -179.265807 -4.780962 -182.889275
Spine -1.431373 7.508559 -8.383890
Head 24.486077 -5.766297 3.668427
LeftShoulder -12.192228 -24.679758 2.823844
LeftArm -15.124180 -5.179903 -48.308028
LeftForeArm -9.453975 -0.000000 2.789037
LeftHand -1.636022 0.000000 8.976154
LeftHandThumb1 -26.253704 0.000000 33.147579
RightShoulder -11.994778 -16.467864 14.215297
RightArm 6.927115 5.955758 70.257565
RightForeArm -23.941990 -0.000000 15.717913
RightHand 0.184912 -0.000000 7.406466
RightHandThumb1 -24.326973 -0.000000 -32.862282
LeftUpLeg -5.177594 1.802624 -3.497317
LeftLeg 12.546445 -0.000000 -0.000000
LeftFoot -5.519146 26.027858 9.484660
LeftToeBase -144.743626 -0.000000 0.000000
RightUpLeg 2.761309 -10.996748 5.234334
RightLeg 0.974350 -0.000000 -0.000000
RightFoot -22.109504 -21.390958 17.888932
RightToeBase 20.981541 -0.000000 -0.000000
492
root 18.382780 36.049660 -20.537886 -179.098793 -5.036280 -182.905500
Spine -1.555227 7.199995 -8.365759
Head 24.437350 -5.906169 3.695188
LeftShoulder -12.117935 -24.598604 2.736811
LeftArm -14.902559 -4.845559 -48.872047
LeftForeArm -9.277347 -0.000000 2.867498
LeftHand -1.710498 -0.000000 8.872533
LeftHandThumb1 -26.253704 0.000000 33.147579
RightShoulder -11.970182 -16.439161 14.135969
RightArm 6.946480 5.755754 70.344547
RightForeArm -23.642600 -0.000000 15.617488
RightHand 0.100609 -0.000000 7.373706
RightHandThumb1 -24.326973 -0.000000 -32.862282
LeftUpLeg -4.553711 2.206684 -3.658600
LeftLeg 10.979334 -0.000000 -0.000000
LeftFoot -4.774303 26.083770 8.543559
LeftToeBase -145.387172 -0.000000 0.000000
RightUpLeg 2.432186 -11.417610 5.149396
RightLeg 1.270255 -0.000000 -0.000000
RightFoot -22.238697 -21.196811 18.028049
RightToeBase 21.043388 -0.000000 -0.000000
493
root 18.324634 36.057104 -20.524446 -178.935905 -5.262158 -182.861616
Spine -1.696186 6.900978 -8.268415
Head 24.413438 -6.055574 3.726089
LeftShoulder -12.059110 -24.491082 2.629912
LeftArm -14.628028 -4.554523 -49.435449
LeftForeArm -9.210738 -0.000000 2.875838
LeftHand -1.646113 -0.000000 8.759470
LeftHandThumb1 -26.253704 0.000000 33.147579
RightShoulder -11.869453 -16.499765 14.037889
RightArm 7.002208 5.850386 70.478337
RightForeArm -23.485421 -0.000000 15.556396
RightHand 0.053835 -0.000000 7.323750
RightHandThumb1 -24.326973 -0.000000 -32.862282
LeftUpLeg -3.966097 2.778481 -3.760283
LeftLeg 9.463942 -0.000000 -0.000000
LeftFoot -3.646269 26.065307 7.527832
LeftToeBase -146.409870 -0.000000 0.000000
RightUpLeg 2.187994 -11.421331 5.156086
RightLeg 1.397016 -0.000000 -0.000000
RightFoot -22.318704 -21.385093 18.209389
RightToeBase 20.941185 -0.000000 -0.000000
494
root 18.271101 36.061798 -20.510873 -178.768820 -5.471842 -182.763883
Spine -1.827368 6.614627 -8.125632
Head 24.307461 -6.168666 3.758396
LeftShoulder -11.997126 -24.453986 2.574696
LeftArm -14.438500 -4.265520 -50.005478
LeftForeArm -8.993815 0.000000 2.906284
LeftHand -1.675770 -0.000000 8.634260
LeftHandThumb1 -26.253704 0.000000 33.147579
RightShoulder -11.852027 -16.453534 13.930033
RightArm 7.084821 5.598482 70.540224
RightForeArm -23.134012 -0.000000 15.382888
RightHand 0.034012 -0.000000 7.258268
RightHandThumb1 -24.326973 -0.000000 -32.862282
LeftUpLeg -3.420684 3.407193 -3.809967
LeftLeg 7.990145 -0.000000 -0.000000
LeftFoot -2.106443 26.012119 6.357628
LeftToeBase -147.763401 -0.000000 0.000000
RightUpLeg 1.871390 -11.574564 5.216868
RightLeg 1.640750 -0.000000 -0.000000
RightFoot -22.411210 -21.409555 18.439448
RightToeBase 20.761990 -0.000000 -0.000000
495
root 18.193802 36.057747 -20.485076 -178.577273 -5.705602 -182.577412
Spine -1.981881 6.251096 -7.695690
Head 24.230091 -6.140748 3.477835
LeftShoulder -11.995738 -24.346281 2.319754
LeftArm -14.137028 -3.920848 -50.578705
LeftForeArm -8.804536 -0.000000 2.852692
LeftHand -1.658003 0.000000 8.365705
LeftHandThumb1 -26.253704 0.000000 33.147579
RightShoulder -11.731683 -16.424117 13.573854
RightArm 7.104056 5.421881 70.643720
RightForeArm -22.816661 0.000000 15.351214
RightHand -0.031449 -0.000000 7.146150
RightHandThumb1 -24.326973 -0.000000 -32.862282
LeftUpLeg -2.467450 2.636214 -3.732340
LeftLeg 5.766049 -0.000000 -0.000000
LeftFoot 0.093681 26.545536 6.248958
LeftToeBase -148.163116 -0.000000 0.000000
RightUpLeg 1.601240 -11.349635 5.349589
RightLeg 1.702724 -0.000000 -0.000000
RightFoot -22.543366 -21.819358 18.668723
RightToeBase 20.747807 -0.000000 -0.000000
